/* XPM */
static char * loser_xpm[] = {
"41 40 14 1",
" 	c None",
".	c #242024",
"+	c #404040",
"@	c #494A49",
"#	c #D27040",
"$	c #F6B080",
"%	c #F6F0F6",
"&	c #804024",
"*	c #929092",
"=	c #243A49",
"-	c #3F4A64",
";	c #5B7080",
">	c #898A89",
",	c #5B5A5B",
"                                         ",
"                      .......            ",
"                   ...+++++++..          ",
"                 ...++@@@@@@+++.         ",
"                .+@@+++@@@@@@@++.        ",
"               .+@@@@@+++@@@@@@++.       ",
"               .++@@@@@+++@@++@@+.       ",
"               .++...@++...@@++@+.       ",
"               .+.##.+..$%..@++.+.       ",
"               ..#$$..&$%%.*.+.+.        ",
"                .#$$$#$$%%.*$..+.        ",
"                .#$$$#$$%%+*$%*+&        ",
"                ..##$#$$$%%%$$%%&        ",
"               .....###$$&&$$$$$&        ",
"              .==.-=.&##$$#&$$$&         ",
"             .==-=.--.&&##$$$&&          ",
"            ..=--=.-==.&&....            ",
"           ..-..--.....&&&.-.            ",
"          .--;;-.=.=-.>....-.    ...     ",
"          .-;;;;-..--.>>>>.-.....$$$.    ",
"          ..-;;;;.=--.>>>>.--.$.$$$$$.   ",
"         .##..-;-.=-.>>>>>.--.$.$$$$#.   ",
"         .$$##.--.--.>>>>>.--.#$.$$$#.   ",
"        .$$##. ..=--.>>>>>.--....$$##.   ",
"        .$##.   .=--.>>>>>>.-=.  ....    ",
"       .$$$##. .=--.>>>>>>>.-=.          ",
"       .$$$$#..==--.>>>>>>>.-=.          ",
"       .$$$###.=--.>>>>>>>>.===.         ",
"        .####.....>>>>>>>>>>....         ",
"         ....++,,..>>>>>>>..,,,.         ",
"           .++,>>,,.......,,,>,,.        ",
"          .++,>>>>,.    .+,,>>>,.        ",
"         .+++,>>>>,.    .+,,>>>,,.       ",
"        .+++,,>>>>,.   .+++,>>,++..      ",
"      ..+++,,,,>>,.    .+++++,,,,,+..    ",
"    ..++,,,,,,,,,+.    .+++,,,>>>>,,+..  ",
"  ..++,,>>>>,,,,++.    .+++,,,,>>>>>,,+. ",
" .+++,,>>>>>>,,++.     .++++,,,,,,,,,,,+.",
".+++,,,,,,,,,,+++.      .+++++,,,,,,,,++.",
"..................       ............... "};
