/* XPM */
static char * icon_xpm[] = {
"34 33 104 2",
"  	c None",
". 	c #000000",
"+ 	c #A49500",
"@ 	c #C0B500",
"# 	c #A49000",
"$ 	c #D2C000",
"% 	c #9B8A00",
"& 	c #898500",
"* 	c #B6AA00",
"= 	c #B69F00",
"- 	c #AD9A00",
"; 	c #928500",
"> 	c #898000",
", 	c #403A00",
"' 	c #BFAA00",
") 	c #6D5500",
"! 	c #7F7000",
"~ 	c #9B8F00",
"{ 	c #2D2500",
"] 	c #B6A500",
"^ 	c #897500",
"/ 	c #806F00",
"( 	c #AD9F00",
"_ 	c #897A00",
": 	c #B6A000",
"< 	c #C0B000",
"[ 	c #807F00",
"} 	c #927A00",
"| 	c #362F00",
"1 	c #FFF012",
"2 	c #7F6F00",
"3 	c #807000",
"4 	c #7F6A00",
"5 	c #645A00",
"6 	c #EDE000",
"7 	c #C9C000",
"8 	c #A49A00",
"9 	c #494500",
"0 	c #928F00",
"a 	c #897F00",
"b 	c #2D2000",
"c 	c #D2C500",
"d 	c #DBC000",
"e 	c #C9BF00",
"f 	c #E4DA00",
"g 	c #9B9500",
"h 	c #9B9000",
"i 	c #C0BF00",
"j 	c #BFB000",
"k 	c #807500",
"l 	c #5B5000",
"m 	c #AD8F00",
"n 	c #DBD500",
"o 	c #D2CA00",
"p 	c #DBCA00",
"q 	c #DBCF00",
"r 	c #927F00",
"s 	c #9B8500",
"t 	c #ADA000",
"u 	c #766500",
"v 	c #928000",
"w 	c #A48F00",
"x 	c #C0BA00",
"y 	c #E4D000",
"z 	c #766A00",
"A 	c #928A00",
"B 	c #6D5A00",
"C 	c #3F3500",
"D 	c #5B5500",
"E 	c #6D5F00",
"F 	c #241F00",
"G 	c #524F00",
"H 	c #807A00",
"I 	c #000500",
"J 	c #5B4F00",
"K 	c #AD9500",
"L 	c #3F3000",
"M 	c #7F6500",
"N 	c #403500",
"O 	c #494000",
"P 	c #362A00",
"Q 	c #1B1A00",
"R 	c #766000",
"S 	c #C0AF00",
"T 	c #403F00",
"U 	c #C9B500",
"V 	c #A49F00",
"W 	c #BFAF00",
"X 	c #524A00",
"Y 	c #7F7500",
"Z 	c #6D6000",
"` 	c #C9BA00",
" .	c #806500",
"..	c #242000",
"+.	c #B6AF00",
"@.	c #E4D500",
"#.	c #C9B000",
"$.	c #524500",
"%.	c #ADA500",
"&.	c #1B1500",
"*.	c #AD9000",
"=.	c #645F00",
"-.	c #404000",
";.	c #120F00",
"                                                                    ",
"                                . .                                 ",
"                              . + @ .                               ",
"                            . # $ % & .                             ",
"                          . * = - ; > , .                           ",
"                          . ' # ) ! ~ { .                           ",
"                          . ] ^ / ( _ { .                           ",
"                          . : / < [ } | .                           ",
"                          . 1 2 3 4 : 5 .                           ",
"                        . 6 7 5 ^ ( 8 ! 9 .                         ",
"        . . . . .       . 8 0 4 ( 7 a ] b .     . . . . . .         ",
"      . c d e f g . . . . < h h i j k : l . . . m 6 @ n o ( .       ",
"    . p q r ( ~ ! r s d $ t _ 3 ~ u v ; ! w x y - 8 4 _ z 0 a .     ",
"  . A q g ^ A k 2 a A a a ; ( 2 _ u ; a h ~ # % B k ; > v = C { .   ",
"    . D E > 8 a k 0 ! h 8 + ; 9 F G > ] ~ H ; _ _ ; @ > > 9 I .     ",
"      . J H a v > v v > h K L I . . l E M ^ u > ~ A : u N I .       ",
"        . F O ~ k _ ; A % P I .     . B a H # # ] s N Q . .         ",
"          . . l 2 k # > # E .       . : + A ^ R - L I . .           ",
"              . F O > S k a T . . . c U V ( s W X I .               ",
"                . . Y H 4 a Z . @ . ( > ( ~ 8 9 I .                 ",
"                  . - 2 k k > `  ._ . ' k a a ...                   ",
"                . - : a 2 % W a u a j U ^ ~ ; l .                   ",
"                . < 3 r h * t R a [ ; +.a s [ z , .                 ",
"              . c @.r % : k v C X u ; > a a _ a | .                 ",
"              . #.R ~ _ _ ; O . . G u % * : _ v J .                 ",
"            . S % ( ; k ^ $.I .   . u V W + z ; [ $..               ",
"            . U ; ; _ > T I .       . Z 4 3 k A A 2 .               ",
"          . %.y ! = % , I .           . &.N z g M 4 N .             ",
"          . *.4 v > L I .               . . =.4 5 -.;..             ",
"            . O 3 O I .                     . , P I .               ",
"              . Q . .                         . ;..                 ",
"                . .                             .                   ",
"                                                                    "};
